<svg xmlns="http://www.w3.org/2000/svg" viewBox="0 0 1370.04 230.97"><defs><style>.cls-1{fill:#9b80fc;}.cls-2{font-size:99.28px;fill:#fff;font-family:PersonalityDEMO, Personality DEMO;}</style></defs><g id="Layer_2" data-name="Layer 2"><g id="Layer_1-2" data-name="Layer 1"><path class="cls-1" d="M1368.5,170.5c-17.31,15.41-52.66,42.34-104.46,52.79-19.42,3.92-61.2,14.11-103.64-5-28.38-12.81-47-35.39-71.42-52.44-50.09-34.91-127.1-44.09-188.25-22.44-36.4,12.89-66,35.08-100.72,50.56-45.23,20.18-102.68,28-149.59,10.36-18.34-6.9-34.13-17.26-51.34-25.74-60-29.56-138.42-34.84-204-13.71-32.05,10.33-60.53,26.32-91.25,38.89s-65.63,21.82-99.75,17c-37.27-5.25-67.14-26.08-97.7-43.54S38,144.41,1.5,152.39V2.5l1367-1Z"/><path d="M1367.44,169.44a227,227,0,0,1-104.94,52.64c-19.54,4-39.15,7.07-59.16,5.48-27.43-2.17-51.72-13.18-73.1-30.15-17.54-13.93-33.51-29.71-53.13-40.84a200.82,200.82,0,0,0-59.7-21.77c-43.77-8.79-90-5.09-131.07,12.62-23.45,10.11-45.07,23.82-67.63,35.69-22.22,11.69-45.52,20.68-70.22,25.48-25.32,4.91-51.84,5.73-77.15.25-25.71-5.56-47.22-19.49-70.43-31.06-41.4-20.65-88.77-29.07-134.82-27a274.56,274.56,0,0,0-69.25,11.9c-24.56,7.66-47.67,19.11-71,29.79-24.36,11.14-49.35,21.22-75.9,25.69a146.3,146.3,0,0,1-80.16-8.5c-45.22-18.32-82.6-53.25-132.45-59.91A108.26,108.26,0,0,0,1.1,151L3,152.39V2.5L1.5,4l534.79-.39,532.07-.39L1368.5,3,1367,1.5v169a1.5,1.5,0,0,0,3,0V1.5a1.52,1.52,0,0,0-1.5-1.5L833.71.39,301.64.78,1.5,1A1.52,1.52,0,0,0,0,2.5V152.39a1.52,1.52,0,0,0,1.9,1.45c54.44-11.16,99.85,24.52,145,48.38,21,11.08,43.32,19.52,67.18,21C240.55,224.92,267,219,291.69,210c24.15-8.73,47-20.57,70.47-30.85,23.72-10.39,48.12-18.42,73.76-22.37,48.65-7.51,100.06-2.54,145.88,15.7,23.2,9.23,43.8,23.81,67.08,32.8,22.19,8.57,46.36,11.29,70,10A232,232,0,0,0,789,200.08c23.37-9,44.8-22,66.66-34,22.14-12.18,45-22.8,69.8-28.12a225.1,225.1,0,0,1,70.29-3.44,211.55,211.55,0,0,1,68.13,18.59c21.34,10.08,38.64,25.1,56.55,40.16,18.31,15.38,37.87,28.22,61.4,33.92,21.05,5.1,42.89,4.62,64.15,1.12,39.39-6.49,76.33-20.2,108.39-44.34q7.83-5.9,15.15-12.4C1371,170.28,1368.88,168.16,1367.44,169.44Z"/><text class="cls-2" transform="translate(394.23 115.16) scale(1.15 1)">Tech In With Ella</text></g></g></svg>