<svg xmlns="http://www.w3.org/2000/svg" viewBox="0 0 1370.04 230.97"><defs><style>.cls-1{fill:#9b80fc;}.cls-2{fill:#fff;}</style></defs><g id="Layer_2" data-name="Layer 2"><g id="Layer_1-2" data-name="Layer 1"><path class="cls-1" d="M1368.5,170.5c-17.31,15.41-52.66,42.34-104.46,52.79-19.42,3.92-61.2,14.11-103.64-5-28.38-12.81-47-35.39-71.42-52.44-50.09-34.91-127.1-44.09-188.25-22.44-36.4,12.89-66,35.08-100.72,50.56-45.23,20.18-102.68,28-149.59,10.36-18.34-6.9-34.13-17.26-51.34-25.74-60-29.56-138.42-34.84-204-13.71-32.05,10.33-60.53,26.32-91.25,38.89s-65.63,21.82-99.75,17c-37.27-5.25-67.14-26.08-97.7-43.54S38,144.41,1.5,152.39V2.5l1367-1Z"/><path d="M1367.44,169.44a227,227,0,0,1-104.94,52.64c-19.54,4-39.15,7.07-59.16,5.48-27.43-2.17-51.72-13.18-73.1-30.15-17.54-13.93-33.51-29.71-53.13-40.84a200.82,200.82,0,0,0-59.7-21.77c-43.77-8.79-90-5.09-131.07,12.62-23.45,10.11-45.07,23.82-67.63,35.69-22.22,11.69-45.52,20.68-70.22,25.48-25.32,4.91-51.84,5.73-77.15.25-25.71-5.56-47.22-19.49-70.43-31.06-41.4-20.65-88.77-29.07-134.82-27a274.56,274.56,0,0,0-69.25,11.9c-24.56,7.66-47.67,19.11-71,29.79-24.36,11.14-49.35,21.22-75.9,25.69a146.3,146.3,0,0,1-80.16-8.5c-45.22-18.32-82.6-53.25-132.45-59.91A108.26,108.26,0,0,0,1.1,151L3,152.39V2.5L1.5,4l534.79-.39,532.07-.39L1368.5,3,1367,1.5v169a1.5,1.5,0,0,0,3,0V1.5a1.52,1.52,0,0,0-1.5-1.5L833.71.39,301.64.78,1.5,1A1.52,1.52,0,0,0,0,2.5V152.39a1.52,1.52,0,0,0,1.9,1.45c54.44-11.16,99.85,24.52,145,48.38,21,11.08,43.32,19.52,67.18,21C240.55,224.92,267,219,291.69,210c24.15-8.73,47-20.57,70.47-30.85,23.72-10.39,48.12-18.42,73.76-22.37,48.65-7.51,100.06-2.54,145.88,15.7,23.2,9.23,43.8,23.81,67.08,32.8,22.19,8.57,46.36,11.29,70,10A232,232,0,0,0,789,200.08c23.37-9,44.8-22,66.66-34,22.14-12.18,45-22.8,69.8-28.12a225.1,225.1,0,0,1,70.29-3.44,211.55,211.55,0,0,1,68.13,18.59c21.34,10.08,38.64,25.1,56.55,40.16,18.31,15.38,37.87,28.22,61.4,33.92,21.05,5.1,42.89,4.62,64.15,1.12,39.39-6.49,76.33-20.2,108.39-44.34q7.83-5.9,15.15-12.4C1371,170.28,1368.88,168.16,1367.44,169.44Z"/><path class="cls-2" d="M394.19,100.94a19.75,19.75,0,0,0-.69-3.67,131.37,131.37,0,0,1-1.37-17.58c-.12-3.87,0-7.74-.69-11.61v-.6c-.12-4.17-.46-8.53-.69-12.7-.11-3.08-.46-6.36-.69-9.63a7.87,7.87,0,0,0-2.17,0,31.75,31.75,0,0,0-4.48.69A3,3,0,0,1,382,46,1.64,1.64,0,0,1,380.32,45c-.23-.6.34-1.49,1-1.79,1-.3,2.06-.4,2.87-.59,3.67-.4,7.1-.9,10.66-1.29a1.39,1.39,0,0,0,.92-.2c2.17-1,4.58-.7,7-.9s4.47-.69,6.76-.89a3.26,3.26,0,0,1,1.72.2,1.41,1.41,0,0,1,.8,1.49,1.17,1.17,0,0,1-1,1.29,17.28,17.28,0,0,1-2.4.3c-2.41.19-4.82.29-7.34.59V45c.11,2.08.34,4.17.46,6.25a11.13,11.13,0,0,1,.34,2.09,56.74,56.74,0,0,1,1.26,8.83,71.19,71.19,0,0,0,.8,8.34,37.46,37.46,0,0,1,.23,6.26,110.63,110.63,0,0,0,1,13.8c.68,5.36,1.72,10.62,2.4,16a6.55,6.55,0,0,1-.23,3c-.34,2.38-.45,2.38-3.44,2.58-2.17,0-4.47.3-6.87.3-.46,0-1.15-.2-2.07-.3C394.88,108.09,394.53,104.51,394.19,100.94Z"/><path class="cls-2" d="M442.22,40.38c.35.1-.34.7-1,.9-2.75.1-5.73.29-8.48.59a7.4,7.4,0,0,0-2.07.3c-1,3.37-1.37,22-.34,26.21,4,1.49,8.14,1.49,12.38,1.29a5.5,5.5,0,0,1,.23,3.27c-4.36-.39-8.48-.69-12.72-1.19-.23,4.07-.35,7.94-.23,11.82.34,6,.91,11.71.68,17.67-.11,3.47.35,7.05.58,10.52a15.49,15.49,0,0,0,.68,2.68,51.83,51.83,0,0,0,7.91-.2,7.32,7.32,0,0,0,2.53-.59,6.52,6.52,0,0,1,3.67-.1c0,.59-.23,1-.23,1.59a3.23,3.23,0,0,0,.34,1.19c-.34.29-.46.49-.69.49-7.22.4-14.44.7-21.66.6h-1.72a1.63,1.63,0,0,1-1.72-1.79c.57-4.07-.35-8.14-.35-12.11-.11-3.57-.69-7.15-.8-10.72-.23-4.07-.34-8-.34-12.11-.23-4.77,0-9.53-.23-14.3,0-3.57-.12-7.15-.12-10.72,0-4.27.12-8.74.35-13.1,0-1.49.45-1.59,2.17-1.89,5.85-1.19,12-1.19,17.89-2.38a16,16,0,0,1,3.09,0C442.68,39.19,441.19,39.59,442.22,40.38Z"/><path class="cls-2" d="M465.61,50.61q-.53,10.72-.69,21.44c0,3.18-.34,6.45-.57,9.53,0,4.67,0,9.43-.12,14a49.32,49.32,0,0,1-.57,5.66c-.12,4.17.23,3.77,3.44,6.25,3,2.09,8.25,2.38,11.35.6a8.16,8.16,0,0,0,4.47-6.06,11.4,11.4,0,0,0,.34-2,1.72,1.72,0,0,1,1-.7,1.35,1.35,0,0,1,1,.6,6.33,6.33,0,0,1,1,2.08,22.48,22.48,0,0,0-1.38,2.78c-2.75,8.14-14.21,9.33-20.4,4.67-1.27-.9-2.3-2-4-2a8.42,8.42,0,0,0-1.72-3.27,16.48,16.48,0,0,1-3.21-6c-.68-2.09-1.72-4-2.29-6.06a56.84,56.84,0,0,1-1.15-17c.35-4.67,1-9.23,1.84-13.9.57-2.18,1.26-4.57,2.06-6.85,1.38-3.08,2.75-6.25,4.47-9.33,2.07-4.07,7.46-6.75,13.76-5.66a9.71,9.71,0,0,1,1.61.4c4.47,2,7,5.06,7.68,9.23a1.35,1.35,0,0,1-1,1.79,1.7,1.7,0,0,1-2.06-1,5.7,5.7,0,0,0-.34-1.49,9.58,9.58,0,0,0-4.82-5.85c-2.18-1.29-4.58-1-7-.4a5.52,5.52,0,0,0-1.72.89C465.38,45.54,465.61,48.13,465.61,50.61Z"/><path class="cls-2" d="M505,111.06c-.34,0-.69.2-1,.2-1.49.1-3.09.1-4.81.3a3.53,3.53,0,0,1-3.79-1.39c-.11-.4-.8-.69-1-.89-.11-4.27-.46-8.44-.69-12.61V77.31c-.11-5.66-.46-11.51-.68-17.17-.12-4.27,0-8.64,0-12.81V39.89c0-1.79.57-2.68,2.63-2.78,1.84-.3,3.79-.3,5.62-.5a2.14,2.14,0,0,1,1.72.89,5.57,5.57,0,0,1,.69,2.09c.34,5,.68,10,1.26,15.09.11,2.08.34,4.17.46,6.25,3.09.6,6.19.1,9.28.7a4.09,4.09,0,0,0,.35-1.29c0-3.18-.12-6.16-.12-9.24a35.48,35.48,0,0,1,.12-3.57,22.76,22.76,0,0,0,.23-4.77,5,5,0,0,1,.45-3.57,5.63,5.63,0,0,0,1.26-.3,1,1,0,0,1,1.15.9c.23.29,0,.59,0,.89q0,5.81-.34,11.91c0,.4.23.9.23,1.49,0,3.38.11,7,.11,10.52.23.6,0,1.2.23,1.79.46,5,.46,9.73.69,14.6a96.41,96.41,0,0,0,.69,10.12c.11,3.18.45,6.26.68,9.43.35,2.09.46,4.17.81,6.26a2.16,2.16,0,0,1-1.38,1.88,1.58,1.58,0,0,1-2.18-.69,5.91,5.91,0,0,0-.23-2.09q0-3.57-.34-7.14c-.12-2.59-.12-5-.34-7.45-.81-5.86-.69-11.62-1-17.47-.34-3-.11-6-1-9-2.86-1.39-6-.49-8.94-.79-.8,2-.46,3.77-.46,5.56,0,1.59.35,3.08.35,4.76,0,6-.23,12,0,18.17,0,3.38.34,7,.45,10.52v6.56A4.87,4.87,0,0,1,505,111.06Z"/><path class="cls-2" d="M550.9,45.54a15,15,0,0,1-2.07-.09,2.78,2.78,0,0,1-1-.9c-.34-.59.23-1.09.69-1.19a13.67,13.67,0,0,1,2.75-.3c3.78-.2,7.57,0,11.35-.2h8.6a8.55,8.55,0,0,0,1,1.49c.57,1.39,0,2-1.49,1.79a14.75,14.75,0,0,0-2.07-.3c-.34,0-.68.2-1.26.2a4.78,4.78,0,0,0-.11,2.19c0,7.14,0,14.29-.57,21.44a105.16,105.16,0,0,0,.22,13.4c.12,7.15.35,14.49.46,21.74a8.27,8.27,0,0,0,.23,2.88c1.72.69,3.1-.79,4.47-.2.69,1.09.69,1.09.46,2.58a8.18,8.18,0,0,1-2.18.3c-2.06-.3-3.66,1.49-5.5.89-2-.79-3.78-.29-5.5-.2a26,26,0,0,1-6.77-.09,3.9,3.9,0,0,0-1-.3,1,1,0,0,1-.46-1.49,2,2,0,0,1,2.18-.89c1,0,2.07.39,3.33,0,0-3.88-.23-7.75-.35-11.82,0-3.57.12-7.24.12-11s-.12-7.84-.12-11.71a49.52,49.52,0,0,1,.46-8.34,41.41,41.41,0,0,0,.23-6.55q-.35-6.26-.34-12.51c0-.3-.23-.6-.23-.89A20.58,20.58,0,0,0,550.9,45.54Z"/><path class="cls-2" d="M582.76,67.78a19.67,19.67,0,0,0-.11,4.47c0,1.89,0,4,.11,6,0,.59.23,1.19.23,1.78.12,5.16.46,10.23.81,15.49.23,2.48,0,5.36,1.26,7.84.46.9-.58,1.79-1.95,2a1.79,1.79,0,0,1-2.07-1.49v-2.09c-.11-5-.34-9.82-.68-14.79a42,42,0,0,0-.35-5.36c-.11-4.27-.11-8.64,0-12.9.23-2.88-.34-5.66-.11-8.34.11-3.88,0-7.65-.23-11.32-.12-2.09,0-4.37-.12-6.55a2.54,2.54,0,0,1,1.84-2.58,1.43,1.43,0,0,0,.92-.3c1.49-.6,2.06-.4,2.75.89,3.44,6.75,6.65,13.4,10.43,20,3.44,6.45,5.85,13.1,8.83,19.65,1.83,3.87,3.78,7.65,5.61,11.52.92-.2.69-.8.69-1.19-.11-2.68-.34-5.36-.46-8-.23-5.56-.34-11-.34-16.58-.34-7.25-.57-14.6-.69-21.74,0-1-.23-2.19-.34-3.28a6.74,6.74,0,0,1,.69-4.27c.11-.3.68-.5,1.14-.59a1,1,0,0,1,.69.59,3.18,3.18,0,0,1,.57,1.29c.12,1.69.12,3.28.12,5.06V58.35c.23,4.67.57,9.23.57,13.9,0,8.44.8,16.78,1.15,25.31.34,5.46.23,10.82.34,16.38a20.57,20.57,0,0,1-.46,2.68c-.23.6-.57,1.2-1.37,1.1a3,3,0,0,1-1.61-.8,10.64,10.64,0,0,1-1.49-2.38c-1.6-3.18-3.32-6.16-5-9.13-1.72-3.28-3.44-6.56-5.16-9.63-1.38-2.58-2.41-5.26-3.78-7.75-.81-2-2.07-3.77-2.87-5.65-1.26-2.39-2.06-4.77-3.1-7.15-1.6-3.48-3.32-6.85-4.81-10.13-.34-.79-.69-1.39-1-2.28C582.42,64.6,583,66.29,582.76,67.78Z"/><path class="cls-2" d="M646.73,92.5a101.39,101.39,0,0,0,12-14.49,2.1,2.1,0,0,1,3.09-.6,16.45,16.45,0,0,1,4.47,4.17,21.69,21.69,0,0,0,2.3,3.77,42.63,42.63,0,0,0,3.21,4.17c2.4,2.48,5.16,5.07,7.79,7.55,0,.2.35.2.46.2.69-.2.57-.6.57-.9-.23-1.78-.23-3.47-.34-5.06a51.33,51.33,0,0,1,.11-11c.35-3,.23-6.15.35-9.23,0-4.07-.12-8,0-12.21a93.58,93.58,0,0,0,.34-13.9,1.69,1.69,0,0,1,1.61-1.89c2.52-.3,5.27-.59,7.91-.79,1.49-.1,2.18.3,2.4,2,.12,2.39.35,4.87.35,7.25,0,3.28-.23,6.55-.23,9.83-.12,5.26.23,10.62-.34,15.78-.35,4.47-.35,8.94-.69,13.41-.46,5.65-.8,11.51-1.15,17.17,0,.4-.23,1-.23,1.49-1.83.89-2.18.89-3.44,0a32.27,32.27,0,0,1-3.89-3.77,164.27,164.27,0,0,0-12.27-12,31.31,31.31,0,0,1-4.93-6,21.83,21.83,0,0,0-1.61-2.38c-1.72.59-2.17,1.78-2.75,3A90.68,90.68,0,0,1,655,100c-2.17,3.27-4.58,6.25-6.87,9.33a5.75,5.75,0,0,1-1.72,1.39,1.31,1.31,0,0,1-2.18-.9,51.18,51.18,0,0,1-.69-6.15,7.18,7.18,0,0,1-.23-2.68c.23-1.29-1.72-2.18-1-3.57.57-1.2-.12-2.39-.12-3.58V89.92c-.34-5.06-.68-10.23-1-15.29,0-.3-.23-.59,0-.89.35-7.35-.34-14.79-.23-22a88.49,88.49,0,0,1,.92-9.43,2.18,2.18,0,0,1,.34-1.19,2.57,2.57,0,0,1,1.49-.4c.35-.2.92.3.92.6a12.63,12.63,0,0,1,.12,2.08c-.35,1.59-.69,3.28-1,4.87a48.1,48.1,0,0,0-.34,8c.23,5.95.23,11.91.34,17.87.23,4.36.69,8.63.92,13.1.12,1.39.12,2.68.35,4.17a16.7,16.7,0,0,0,.34,2.68C646,93.2,646.39,92.9,646.73,92.5Z"/><path class="cls-2" d="M705.31,105a18.83,18.83,0,0,0,.34-2.28c-.23-4.57-.34-9.24-.57-14-.11-3-.11-6.06-.34-9-.12-4.36-.35-8.63-.35-12.8-.11-7-.11-13.9-.34-20.85,0-.5-.12-.89-.12-1.49h-2.06c-.34,0-.92.3-1.26.1a2,2,0,0,1-1.15-.89c-.23-.3.12-.9.35-1a7.45,7.45,0,0,1,2.75-1.19c3.09-.49,6.19-.89,9.06-1.19,2.06-.3,4-.59,5.84-.89,1.61,0,2.07.4,2.29,2.48-.68,0-1.37.2-2.29.2-.69.1-1.37.3-2.18.4v4.07c0,8.14.12,16.18.35,24.42V82.47c0,4.17.11,8.34,0,12.51,0,2-.23,3.78-.35,5.66a14.14,14.14,0,0,0,.35,3.87,9.35,9.35,0,0,0,2.41.2c1.14.1,1.49.4,1.49,1.49a1.3,1.3,0,0,1-1.49,1.49H705.31a12.64,12.64,0,0,1-4.36-.79c-1.14-.6-1.37-1.3-.34-2.39.23-.1.34-.29.69-.29C702.56,104.41,703.93,104.71,705.31,105Z"/><path class="cls-2" d="M729.38,45.15h-2.75c-1-.2-1.72-.8-1.72-1.19a1.81,1.81,0,0,1,1.26-1.69,9.17,9.17,0,0,1,1.38-.3h6.88c4.24,0,8.6,0,13.07-.1a26.41,26.41,0,0,0,5.61-.3,4,4,0,0,1,3.44,1,1.16,1.16,0,0,1-.68,2.08c-1.15.2-2.41.2-3.44.3a51.76,51.76,0,0,0-5.51.2,15.78,15.78,0,0,0-.46,5.66c.12,3.67.12,7.24.12,11v42.39a10.67,10.67,0,0,1-1.15,5.06c-2.75.2-5.39.49-7.91.49-2.29.1-2.75-.49-2.75-2.28.12-4.57.46-9.23.46-13.8.23-2.38,0-4.76,0-7.15-.11-7.14-.34-14.29-.34-21.44V48.72a20.48,20.48,0,0,0-.35-3.57Z"/><path class="cls-2" d="M775.47,111.06c-.35,0-.69.2-1,.2-1.49.1-3.1.1-4.82.3a3.52,3.52,0,0,1-3.78-1.39c-.12-.4-.8-.69-1-.89-.12-4.27-.46-8.44-.69-12.61V77.31c-.12-5.66-.46-11.51-.69-17.17-.11-4.27,0-8.64,0-12.81V39.89c0-1.79.57-2.68,2.64-2.78,1.83-.3,3.78-.3,5.62-.5a2.16,2.16,0,0,1,1.72.89,5.54,5.54,0,0,1,.68,2.09c.35,5,.69,10,1.26,15.09.12,2.08.35,4.17.46,6.25,3.1.6,6.19.1,9.29.7a4,4,0,0,0,.34-1.29c0-3.18-.11-6.16-.11-9.24,0-1.19,0-2.38.11-3.57a22.11,22.11,0,0,0,.23-4.77,4.9,4.9,0,0,1,.46-3.57,5.77,5.77,0,0,0,1.26-.3,1,1,0,0,1,1.15.9c.23.29,0,.59,0,.89q0,5.81-.35,11.91c0,.4.23.9.23,1.49,0,3.38.12,7,.12,10.52.23.6,0,1.2.23,1.79.46,5,.46,9.73.69,14.6a99.19,99.19,0,0,0,.68,10.12c.12,3.18.46,6.26.69,9.43.34,2.09.46,4.17.8,6.26a2.15,2.15,0,0,1-1.37,1.88c-.69.5-2.07,0-2.18-.69a5.91,5.91,0,0,0-.23-2.09q0-3.57-.34-7.14c-.12-2.59-.12-5-.35-7.45-.8-5.86-.69-11.62-1-17.47-.34-3-.11-6-1-9-2.87-1.39-6-.49-8.94-.79-.81,2-.46,3.77-.46,5.56,0,1.59.34,3.08.34,4.76,0,6-.23,12,0,18.17,0,3.38.35,7,.46,10.52v6.56A5.06,5.06,0,0,1,775.47,111.06Z"/><path class="cls-2" d="M844.25,83.86a5.1,5.1,0,0,1,2.52.4,1.53,1.53,0,0,1,1,1.49c.23.6-.46,1.19-1.37,1.39a9.35,9.35,0,0,1-2.41-.2c-3.9-.4-7.68.2-11.81-.3-.57,3.58.12,6.85.35,10,0,3.08-.23,6.35.68,9.63,5.16-.4,10.44-1,15.59-1.59,1.5-.3,1.84.7,1.38,2.48-.46.3-.8.8-1.38.9a4.85,4.85,0,0,1-2.4,0c-5.16-.3-10.09.59-15.14,1.68-1.83.3-3.89.6-5.84.9-.8.1-1.49.59-2.41.69a15.37,15.37,0,0,1-2.52.5,11.24,11.24,0,0,1-.57-2.38V96.67c0-1.79-.35-3.47-.35-5.26-.34-6-.11-11.72,0-17.57,0-3.08-.34-6.26-.46-9.53,0-2.19.12-4.47,0-6.65,0-3-.23-6,0-8.94,0-2.38-.23-4.76-.34-7.15a11,11,0,0,1,.69-4.66c.34-1,.68-1.29,1.83-1.29a1,1,0,0,1,1,0,130.92,130.92,0,0,0,16.4-1.09,33.12,33.12,0,0,0,8.25-.9c.34-.1.8.2,1.38.2a10.19,10.19,0,0,1-.23,2.68c-5.85.6-11.47,1-17.31,1.49a6.14,6.14,0,0,0-.35,2.08c-.23,5.66.12,11.42.46,17.28.23,2.48.23,5.16.23,7.84.34,4.47.46,8.84.69,13.1v5.27A52.35,52.35,0,0,0,844.25,83.86Z"/><path class="cls-2" d="M866.49,45.25c.11,6,.34,11.91.69,17.77.11,3.57.45,6.95.68,10.42.35,6.06.69,12.31.81,18.47.23,3.67,0,7.44.23,11.31,0,.9-.35,1.89.45,3,2.07.3,4.13-.5,6.42-.5a54.83,54.83,0,0,0,6.54-.69c.11,1,.46,1.89.69,3-1,.1-2,.39-2.75.39-3.67-.29-7.11.5-10.67.8a9.36,9.36,0,0,0-1.6.4c-.35.19-.8.59-1.15.49-2.41-.79-4.7-.2-7.11.1-1.37.2-2.17-.3-2.17-1.49-.35-8.14-1.38-16.48-1-24.72.12-3.27-.22-6.65,0-10.12,0-3.38.35-6.85.35-10.23V48.72c0-1.79,0-3.57.11-5.36.23-1.49.69-2,2.41-2s3.67-.1,5.5-.1C866.14,42.27,866.26,43.76,866.49,45.25Z"/><path class="cls-2" d="M898.7,45.25c.12,6,.34,11.91.69,17.77.11,3.57.46,6.95.69,10.42.34,6.06.68,12.31.8,18.47.23,3.67,0,7.44.23,11.31,0,.9-.35,1.89.46,3,2.06.3,4.12-.5,6.42-.5a54.89,54.89,0,0,0,6.53-.69c.12,1,.46,1.89.69,3-1,.1-2,.39-2.75.39-3.67-.29-7.11.5-10.66.8a9.24,9.24,0,0,0-1.61.4c-.34.19-.8.59-1.15.49-2.4-.79-4.7-.2-7.1.1-1.38.2-2.18-.3-2.18-1.49-.34-8.14-1.38-16.48-1-24.72.11-3.27-.23-6.65,0-10.12,0-3.38.34-6.85.34-10.23V48.72c0-1.79,0-3.57.12-5.36.23-1.49.68-2,2.4-2s3.67-.1,5.51-.1C898.36,42.27,898.47,43.76,898.7,45.25Z"/><path class="cls-2" d="M931.6,111.06a10.52,10.52,0,0,1-2.29.3c-2.41,0-4.93.2-7.57.2-1.37,0-1.83-.79-1.72-2.08,1.26-5,1.61-10,2.75-14.89.69-3.48,1.27-6.85,2-10.33a28.27,28.27,0,0,1,.46-4.17c1.26-5.46,2.41-11,3.67-16.48.46-2.38,1.15-4.76,1.38-7.15A49.63,49.63,0,0,1,933,44.25c.34-1.09.8-2.08.11-3.47-.46-.7,0-1.29,1-1.49a9.72,9.72,0,0,1,3-.4c1.38-.2,2.76,0,4.13-.2,1.84,0,1.84,0,4.47.9,0,.59.12,1.39.12,2,.23,3.38,1,6.66,1.37,10.13.58,4.27,1.38,8.44,2.3,12.81,1,6.25,1.83,12.6,2.86,18.86C953,88.63,954.07,94,955,99.15c.34,3.18.46,6.16.8,9.23a14,14,0,0,1-.11,2.09,1.7,1.7,0,0,1-1.72.79,3.63,3.63,0,0,1-1.26-.89,2.07,2.07,0,0,1-.12-.89A72.15,72.15,0,0,0,951,94.69c-.69-5.07-1.38-10.23-2.18-15.29-.35-2.88-.92-5.66-1.38-8.54a11,11,0,0,0-.69-1.79c-2.63-.39-5.38-1-8.14-1.59C935.73,81.88,933.09,96.37,931.6,111.06Zm11.47-63.83c-1.38,2.68-1.49,5.46-2.18,8.34s-1.72,5.66-1.61,8.44c2.07,1.69,4.36,1.69,7.11,1.79C945.7,59.24,944.1,53.29,943.07,47.23Z"/></g></g></svg>